<svg width="48" height="45" viewBox="0 0 48 45" fill="none" xmlns="http://www.w3.org/2000/svg">
<path d="M6.85121 33.7871C6.30517 32.6289 6.0019 31.3477 6.0019 30C6.0019 24.8223 10.4782 20.625 16.0001 20.625C21.522 20.625 25.9983 24.8223 25.9983 30C25.9983 35.1777 21.522 39.375 16.0001 39.375C14.2223 39.375 12.5529 38.9399 11.1063 38.1771L6 39.3741L6.85121 33.7871Z" fill="#7ECEFC"/>
<path d="M9.99966 20.625C9.99966 12.3407 17.1625 5.625 25.9983 5.625C34.8341 5.625 41.997 12.3407 41.997 20.625C41.997 22.7813 41.5117 24.8313 40.6379 26.6843L42 35.6236L33.8291 33.7084C31.5144 34.9289 28.8431 35.625 25.9983 35.625M6.0019 30C6.0019 31.3477 6.30517 32.6289 6.85121 33.7871L6 39.3741L11.1063 38.1771C12.5529 38.9399 14.2223 39.375 16.0001 39.375C21.522 39.375 25.9983 35.1777 25.9983 30C25.9983 24.8223 21.522 20.625 16.0001 20.625C10.4782 20.625 6.0019 24.8223 6.0019 30Z" stroke="#3F464D" stroke-opacity="0.7" stroke-width="4" stroke-linecap="round" stroke-linejoin="round"/>
</svg>
