<svg width="45" height="27" viewBox="0 0 45 27" fill="none" xmlns="http://www.w3.org/2000/svg">
<path d="M12.0699 8.31184L13.0474 23.0239L11.789 23.3197L2.60671 12.9656L2.49609 12.9916L3.31265 25.3121L2.01976 25.6159L1.04231 10.9038L2.29372 10.6097L11.5 20.9727L11.6107 20.9467L10.7978 8.61086L12.0699 8.31184ZM16.812 22.1391L15.8345 7.42699L24.0482 5.4964L24.1276 6.70343L17.2068 8.33013L17.5748 13.8687L24.06 12.3444L24.1394 13.5514L17.6542 15.0758L18.0254 20.6282L25.0845 18.969L25.1639 20.176L16.812 22.1391ZM30.8333 18.8434L25.9771 5.043L27.2908 4.73424L31.3348 16.6317L31.4454 16.6056L33.8174 3.20017L35.3108 2.84915L39.3618 14.7449L39.4724 14.7189L41.8375 1.31508L43.165 1.00306L40.2637 16.6268L38.8741 16.9535L34.7653 5.24637L34.6755 5.2675L32.216 18.5184L30.8333 18.8434Z" fill="#FF8066"/>
<path d="M12.0699 8.31184L13.0677 8.24555C13.0482 7.95235 12.9008 7.68256 12.6645 7.50784C12.4283 7.33311 12.1271 7.27114 11.8411 7.33837L12.0699 8.31184ZM13.0474 23.0239L13.2762 23.9974C13.7523 23.8855 14.0776 23.4457 14.0452 22.9577L13.0474 23.0239ZM11.789 23.3197L11.0409 23.9832C11.2848 24.2583 11.66 24.3773 12.0178 24.2932L11.789 23.3197ZM2.60671 12.9656L3.35489 12.3021C3.11096 12.0271 2.73578 11.9081 2.3779 11.9922L2.60671 12.9656ZM2.49609 12.9916L2.26728 12.0182C1.79124 12.1301 1.46594 12.5698 1.49828 13.0578L2.49609 12.9916ZM3.31265 25.3121L3.54146 26.2855C4.0175 26.1736 4.3428 25.7339 4.31046 25.2459L3.31265 25.3121ZM2.01976 25.6159L1.02196 25.6822C1.04143 25.9754 1.18888 26.2452 1.42513 26.4199C1.66138 26.5947 1.96252 26.6566 2.24857 26.5894L2.01976 25.6159ZM1.04231 10.9038L0.813501 9.93037C0.337397 10.0423 0.0120892 10.4821 0.0445112 10.9701L1.04231 10.9038ZM2.29372 10.6097L3.04132 9.94555C2.79736 9.67094 2.42249 9.55218 2.06491 9.63623L2.29372 10.6097ZM11.5 20.9727L10.7524 21.6369C10.9964 21.9115 11.3713 22.0302 11.7288 21.9462L11.5 20.9727ZM11.6107 20.9467L11.8395 21.9202C12.3154 21.8083 12.6406 21.3688 12.6085 20.881L11.6107 20.9467ZM10.7978 8.61086L10.569 7.63738C10.093 7.74924 9.76778 8.18879 9.79993 8.67661L10.7978 8.61086ZM12.0699 8.31184L11.0721 8.37813L12.0496 23.0902L13.0474 23.0239L14.0452 22.9577L13.0677 8.24555L12.0699 8.31184ZM13.0474 23.0239L12.8185 22.0505L11.5602 22.3462L11.789 23.3197L12.0178 24.2932L13.2762 23.9974L13.0474 23.0239ZM11.789 23.3197L12.5372 22.6562L3.35489 12.3021L2.60671 12.9656L1.85854 13.6291L11.0409 23.9832L11.789 23.3197ZM2.60671 12.9656L2.3779 11.9922L2.26728 12.0182L2.49609 12.9916L2.7249 13.9651L2.83552 13.9391L2.60671 12.9656ZM2.49609 12.9916L1.49828 13.0578L2.31484 25.3782L3.31265 25.3121L4.31046 25.2459L3.4939 12.9255L2.49609 12.9916ZM3.31265 25.3121L3.08384 24.3386L1.79094 24.6425L2.01976 25.6159L2.24857 26.5894L3.54146 26.2855L3.31265 25.3121ZM2.01976 25.6159L3.01756 25.5496L2.04011 10.8375L1.04231 10.9038L0.0445112 10.9701L1.02196 25.6822L2.01976 25.6159ZM1.04231 10.9038L1.27112 11.8773L2.52253 11.5832L2.29372 10.6097L2.06491 9.63623L0.813501 9.93037L1.04231 10.9038ZM2.29372 10.6097L1.54612 11.2739L10.7524 21.6369L11.5 20.9727L12.2476 20.3086L3.04132 9.94555L2.29372 10.6097ZM11.5 20.9727L11.7288 21.9462L11.8395 21.9202L11.6107 20.9467L11.3818 19.9732L11.2712 19.9992L11.5 20.9727ZM11.6107 20.9467L12.6085 20.881L11.7956 8.5451L10.7978 8.61086L9.79993 8.67661L10.6128 21.0125L11.6107 20.9467ZM10.7978 8.61086L11.0266 9.58433L12.2987 9.28531L12.0699 8.31184L11.8411 7.33837L10.569 7.63738L10.7978 8.61086ZM16.812 22.1391L15.8142 22.2054C15.8336 22.4986 15.9811 22.7684 16.2173 22.9431C16.4536 23.1178 16.7547 23.1798 17.0408 23.1126L16.812 22.1391ZM15.8345 7.42699L15.6057 6.45352C15.1296 6.56542 14.8043 7.00528 14.8367 7.49328L15.8345 7.42699ZM24.0482 5.4964L25.046 5.43074C25.0267 5.13742 24.8793 4.86745 24.643 4.69258C24.4068 4.51772 24.1055 4.45567 23.8194 4.52293L24.0482 5.4964ZM24.1276 6.70343L24.3564 7.6769C24.8323 7.56505 25.1575 7.12555 25.1254 6.63777L24.1276 6.70343ZM17.2068 8.33013L16.978 7.35666C16.5019 7.46856 16.1766 7.90842 16.209 8.39642L17.2068 8.33013ZM17.5748 13.8687L16.577 13.935C16.5965 14.2282 16.7439 14.498 16.9802 14.6727C17.2164 14.8474 17.5175 14.9094 17.8036 14.8422L17.5748 13.8687ZM24.06 12.3444L25.0578 12.2787C25.0385 11.9854 24.8911 11.7155 24.6549 11.5406C24.4186 11.3657 24.1173 11.3037 23.8312 11.3709L24.06 12.3444ZM24.1394 13.5514L24.3682 14.5249C24.8441 14.4131 25.1693 13.9736 25.1372 13.4858L24.1394 13.5514ZM17.6542 15.0758L17.4254 14.1023C16.9491 14.2142 16.6238 14.6543 16.6564 15.1425L17.6542 15.0758ZM18.0254 20.6282L17.0276 20.6949C17.0472 20.988 17.1947 21.2577 17.431 21.4323C17.6672 21.6069 17.9683 21.6689 18.2542 21.6016L18.0254 20.6282ZM25.0845 18.969L26.0823 18.9033C26.063 18.61 25.9156 18.34 25.6793 18.1652C25.4431 17.9903 25.1418 17.9282 24.8557 17.9955L25.0845 18.969ZM25.1639 20.176L25.3927 21.1495C25.8686 21.0376 26.1938 20.5981 26.1617 20.1103L25.1639 20.176ZM16.812 22.1391L17.8098 22.0728L16.8323 7.3607L15.8345 7.42699L14.8367 7.49328L15.8142 22.2054L16.812 22.1391ZM15.8345 7.42699L16.0633 8.40046L24.277 6.46987L24.0482 5.4964L23.8194 4.52293L15.6057 6.45352L15.8345 7.42699ZM24.0482 5.4964L23.0503 5.56206L23.1297 6.76909L24.1276 6.70343L25.1254 6.63777L25.046 5.43074L24.0482 5.4964ZM24.1276 6.70343L23.8988 5.72996L16.978 7.35666L17.2068 8.33013L17.4356 9.3036L24.3564 7.6769L24.1276 6.70343ZM17.2068 8.33013L16.209 8.39642L16.577 13.935L17.5748 13.8687L18.5726 13.8024L18.2046 8.26384L17.2068 8.33013ZM17.5748 13.8687L17.8036 14.8422L24.2888 13.3179L24.06 12.3444L23.8312 11.3709L17.346 12.8953L17.5748 13.8687ZM24.06 12.3444L23.0621 12.4101L23.1416 13.6171L24.1394 13.5514L25.1372 13.4858L25.0578 12.2787L24.06 12.3444ZM24.1394 13.5514L23.9106 12.578L17.4254 14.1023L17.6542 15.0758L17.883 16.0492L24.3682 14.5249L24.1394 13.5514ZM17.6542 15.0758L16.6564 15.1425L17.0276 20.6949L18.0254 20.6282L19.0232 20.5615L18.652 15.009L17.6542 15.0758ZM18.0254 20.6282L18.2542 21.6016L25.3133 19.9424L25.0845 18.969L24.8557 17.9955L17.7966 19.6547L18.0254 20.6282ZM25.0845 18.969L24.0866 19.0346L24.166 20.2417L25.1639 20.176L26.1617 20.1103L26.0823 18.9033L25.0845 18.969ZM25.1639 20.176L24.9351 19.2025L16.5831 21.1656L16.812 22.1391L17.0408 23.1126L25.3927 21.1495L25.1639 20.176ZM30.8333 18.8434L29.8899 19.1754C30.0595 19.6572 30.5649 19.9338 31.0621 19.8169L30.8333 18.8434ZM25.9771 5.043L25.7483 4.06953C25.472 4.13449 25.2362 4.31385 25.0999 4.56288C24.9636 4.81191 24.9396 5.10714 25.0338 5.37493L25.9771 5.043ZM27.2908 4.73424L28.2376 4.41241C28.0719 3.92495 27.5631 3.64296 27.062 3.76077L27.2908 4.73424ZM31.3348 16.6317L30.388 16.9535C30.5537 17.4409 31.0624 17.7229 31.5636 17.6051L31.3348 16.6317ZM31.4454 16.6056L31.6742 17.5791C32.0633 17.4877 32.3605 17.1734 32.4301 16.7799L31.4454 16.6056ZM33.8174 3.20017L33.5886 2.2267C33.1996 2.31813 32.9024 2.63241 32.8327 3.02593L33.8174 3.20017ZM35.3108 2.84915L36.2575 2.52679C36.0916 2.03963 35.583 1.75793 35.082 1.87568L35.3108 2.84915ZM39.3618 14.7449L38.4152 15.0673C38.5811 15.5545 39.0896 15.8362 39.5906 15.7184L39.3618 14.7449ZM39.4724 14.7189L39.7012 15.6924C40.0904 15.6009 40.3877 15.2864 40.4572 14.8927L39.4724 14.7189ZM41.8375 1.31508L41.6087 0.341607C41.2195 0.433087 40.9222 0.74759 40.8527 1.14131L41.8375 1.31508ZM43.165 1.00306L44.1482 1.18564C44.2099 0.853475 44.0996 0.512627 43.8552 0.279449C43.6107 0.046271 43.265 -0.0477085 42.9362 0.0295928L43.165 1.00306ZM40.2637 16.6268L40.4926 17.6003C40.8786 17.5096 41.1745 17.1993 41.2469 16.8094L40.2637 16.6268ZM38.8741 16.9535L37.9305 17.2846C38.0997 17.7669 38.6054 18.0439 39.1029 17.9269L38.8741 16.9535ZM34.7653 5.24637L35.7089 4.91521C35.5397 4.43298 35.034 4.15596 34.5365 4.2729L34.7653 5.24637ZM34.6755 5.2675L34.4466 4.29403C34.0606 4.38477 33.7646 4.69508 33.6922 5.08501L34.6755 5.2675ZM32.216 18.5184L32.4448 19.4919C32.8309 19.4012 33.1269 19.0908 33.1992 18.7009L32.216 18.5184ZM30.8333 18.8434L31.7766 18.5115L26.9204 4.71107L25.9771 5.043L25.0338 5.37493L29.8899 19.1754L30.8333 18.8434ZM25.9771 5.043L26.2059 6.01647L27.5196 5.70771L27.2908 4.73424L27.062 3.76077L25.7483 4.06953L25.9771 5.043ZM27.2908 4.73424L26.344 5.05606L30.388 16.9535L31.3348 16.6317L32.2816 16.3098L28.2376 4.41241L27.2908 4.73424ZM31.3348 16.6317L31.5636 17.6051L31.6742 17.5791L31.4454 16.6056L31.2166 15.6322L31.106 15.6582L31.3348 16.6317ZM31.4454 16.6056L32.4301 16.7799L34.8021 3.3744L33.8174 3.20017L32.8327 3.02593L30.4607 16.4314L31.4454 16.6056ZM33.8174 3.20017L34.0463 4.17364L35.5396 3.82262L35.3108 2.84915L35.082 1.87568L33.5886 2.2267L33.8174 3.20017ZM35.3108 2.84915L34.3642 3.17151L38.4152 15.0673L39.3618 14.7449L40.3084 14.4226L36.2575 2.52679L35.3108 2.84915ZM39.3618 14.7449L39.5906 15.7184L39.7012 15.6924L39.4724 14.7189L39.2436 13.7455L39.133 13.7715L39.3618 14.7449ZM39.4724 14.7189L40.4572 14.8927L42.8223 1.48884L41.8375 1.31508L40.8527 1.14131L38.4876 14.5452L39.4724 14.7189ZM41.8375 1.31508L42.0663 2.28855L43.3938 1.97653L43.165 1.00306L42.9362 0.0295928L41.6087 0.341607L41.8375 1.31508ZM43.165 1.00306L42.1818 0.820491L39.2806 16.4443L40.2637 16.6268L41.2469 16.8094L44.1482 1.18564L43.165 1.00306ZM40.2637 16.6268L40.0349 15.6534L38.6453 15.98L38.8741 16.9535L39.1029 17.9269L40.4926 17.6003L40.2637 16.6268ZM38.8741 16.9535L39.8176 16.6223L35.7089 4.91521L34.7653 5.24637L33.8218 5.57753L37.9305 17.2846L38.8741 16.9535ZM34.7653 5.24637L34.5365 4.2729L34.4466 4.29403L34.6755 5.2675L34.9043 6.24097L34.9941 6.21984L34.7653 5.24637ZM34.6755 5.2675L33.6922 5.08501L31.2328 18.3359L32.216 18.5184L33.1992 18.7009L35.6587 5.44998L34.6755 5.2675ZM32.216 18.5184L31.9872 17.545L30.6044 17.87L30.8333 18.8434L31.0621 19.8169L32.4448 19.4919L32.216 18.5184Z" fill="#FF8066"/>
</svg>
