<svg width="45" height="46" viewBox="0 0 45 46" fill="none" xmlns="http://www.w3.org/2000/svg">
<g clip-path="url(#clip0_307_2988)">
<path d="M22.5 28.209C25.6066 28.209 28.125 25.6906 28.125 22.584C28.125 19.4774 25.6066 16.959 22.5 16.959C19.3934 16.959 16.875 19.4774 16.875 22.584C16.875 25.6906 19.3934 28.209 22.5 28.209Z" stroke="#3F464D" stroke-width="4" stroke-linecap="round" stroke-linejoin="round"/>
<path d="M36.375 28.209C36.1254 28.7745 36.051 29.4018 36.1612 30.0101C36.2715 30.6183 36.5615 31.1796 36.9937 31.6215L37.1063 31.734C37.4549 32.0823 37.7315 32.4958 37.9202 32.9511C38.1089 33.4063 38.2061 33.8943 38.2061 34.3871C38.2061 34.8799 38.1089 35.3679 37.9202 35.8231C37.7315 36.2784 37.4549 36.692 37.1063 37.0402C36.758 37.3889 36.3444 37.6655 35.8892 37.8542C35.4339 38.0429 34.9459 38.1401 34.4531 38.1401C33.9603 38.1401 33.4723 38.0429 33.0171 37.8542C32.5619 37.6655 32.1483 37.3889 31.8 37.0402L31.6875 36.9277C31.2456 36.4955 30.6843 36.2055 30.0761 36.0952C29.4679 35.9849 28.8405 36.0594 28.275 36.309C27.7204 36.5467 27.2475 36.9413 26.9143 37.4444C26.5812 37.9474 26.4024 38.5369 26.4 39.1402V39.459C26.4 40.4535 26.0049 41.4074 25.3016 42.1106C24.5984 42.8139 23.6446 43.209 22.65 43.209C21.6554 43.209 20.7016 42.8139 19.9984 42.1106C19.2951 41.4074 18.9 40.4535 18.9 39.459V39.2902C18.8855 38.6696 18.6846 38.0677 18.3235 37.5628C17.9623 37.0579 17.4576 36.6733 16.875 36.459C16.3095 36.2094 15.6821 36.1349 15.0739 36.2452C14.4657 36.3555 13.9044 36.6455 13.4625 37.0777L13.35 37.1902C13.0017 37.5389 12.5881 37.8155 12.1329 38.0042C11.6777 38.1929 11.1897 38.2901 10.6969 38.2901C10.2041 38.2901 9.71609 38.1929 9.26085 38.0042C8.80561 37.8155 8.39202 37.5389 8.04375 37.1902C7.69509 36.842 7.41849 36.4284 7.22978 35.9731C7.04106 35.5179 6.94392 35.0299 6.94392 34.5371C6.94392 34.0443 7.04106 33.5563 7.22978 33.1011C7.41849 32.6458 7.69509 32.2323 8.04375 31.884L8.15625 31.7715C8.58851 31.3296 8.87847 30.7683 8.98876 30.1601C9.09904 29.5518 9.02459 28.9245 8.775 28.359C8.53732 27.8044 8.14267 27.3315 7.63962 26.9983C7.13658 26.6652 6.5471 26.4864 5.94375 26.484H5.625C4.63044 26.484 3.67661 26.0889 2.97335 25.3856C2.27009 24.6824 1.875 23.7285 1.875 22.734C1.875 21.7394 2.27009 20.7856 2.97335 20.0823C3.67661 19.3791 4.63044 18.984 5.625 18.984H5.79375C6.41436 18.9695 7.01626 18.7686 7.52119 18.4074C8.02611 18.0463 8.41072 17.5416 8.625 16.959C8.87459 16.3935 8.94904 15.7661 8.83876 15.1579C8.72847 14.5496 8.43851 13.9884 8.00625 13.5465L7.89375 13.434C7.54509 13.0857 7.26849 12.6721 7.07978 12.2169C6.89106 11.7616 6.79393 11.2737 6.79393 10.7809C6.79393 10.2881 6.89106 9.80008 7.07978 9.34483C7.26849 8.88959 7.54509 8.47601 7.89375 8.12773C8.24202 7.77907 8.65561 7.50248 9.11085 7.31376C9.56609 7.12504 10.0541 7.02791 10.5469 7.02791C11.0397 7.02791 11.5277 7.12504 11.9829 7.31376C12.4381 7.50248 12.8517 7.77907 13.2 8.12773L13.3125 8.24023C13.7544 8.67249 14.3157 8.96246 14.9239 9.07274C15.5321 9.18303 16.1595 9.10858 16.725 8.85898H16.875C17.4296 8.6213 17.9025 8.22665 18.2357 7.72361C18.5688 7.22056 18.7476 6.63108 18.75 6.02773V5.70898C18.75 4.71442 19.1451 3.7606 19.8484 3.05733C20.5516 2.35407 21.5054 1.95898 22.5 1.95898C23.4946 1.95898 24.4484 2.35407 25.1516 3.05733C25.8549 3.7606 26.25 4.71442 26.25 5.70898V5.87773C26.2524 6.48108 26.4312 7.07056 26.7643 7.57361C27.0975 8.07665 27.5704 8.4713 28.125 8.70898C28.6905 8.95858 29.3179 9.03303 29.9261 8.92274C30.5343 8.81246 31.0956 8.52249 31.5375 8.09023L31.65 7.97773C31.9983 7.62907 32.4119 7.35248 32.8671 7.16376C33.3223 6.97504 33.8103 6.87791 34.3031 6.87791C34.7959 6.87791 35.2839 6.97504 35.7392 7.16376C36.1944 7.35248 36.608 7.62907 36.9562 7.97773C37.3049 8.32601 37.5815 8.73959 37.7702 9.19483C37.9589 9.65008 38.0561 10.1381 38.0561 10.6309C38.0561 11.1237 37.9589 11.6116 37.7702 12.0669C37.5815 12.5221 37.3049 12.9357 36.9562 13.284L36.8437 13.3965C36.4115 13.8384 36.1215 14.3996 36.0112 15.0079C35.901 15.6161 35.9754 16.2435 36.225 16.809V16.959C36.4627 17.5136 36.8573 17.9865 37.3604 18.3197C37.8634 18.6528 38.4529 18.8316 39.0562 18.834H39.375C40.3696 18.834 41.3234 19.2291 42.0266 19.9323C42.7299 20.6356 43.125 21.5894 43.125 22.584C43.125 23.5785 42.7299 24.5324 42.0266 25.2356C41.3234 25.9389 40.3696 26.334 39.375 26.334H39.2062C38.6029 26.3364 38.0134 26.5152 37.5104 26.8483C37.0073 27.1815 36.6127 27.6544 36.375 28.209Z" stroke="#3F464D" stroke-width="4" stroke-linecap="round" stroke-linejoin="round"/>
</g>
<defs>
<clipPath id="clip0_307_2988">
<rect width="45" height="45" fill="white" transform="translate(0 0.0839844)"/>
</clipPath>
</defs>
</svg>
