<svg width="44" height="43" viewBox="0 0 44 43" fill="none" xmlns="http://www.w3.org/2000/svg">
<path d="M22.1416 0.00488281C22.8465 0.0548386 23.4771 0.475221 23.793 1.11523L29.5078 12.6924L42.2891 14.5605C43.0421 14.6706 43.6675 15.199 43.9023 15.9229C44.1371 16.6468 43.9407 17.4416 43.3955 17.9727L34.1484 26.9785L36.3311 39.7021C36.4597 40.4524 36.151 41.2108 35.5352 41.6582C34.9192 42.1055 34.1024 42.1648 33.4287 41.8105L22 35.7998L10.5713 41.8105C10.3644 41.9194 10.1439 41.989 9.91992 42.0205C9.41472 42.0916 8.8916 41.9681 8.46484 41.6582C7.84894 41.2108 7.54034 40.4525 7.66895 39.7021L9.85059 26.9785L0.604492 17.9727C0.0592954 17.4416 -0.137092 16.6468 0.0976562 15.9229C0.332501 15.199 0.957941 14.6706 1.71094 14.5605L14.4912 12.6924L20.207 1.11523L20.2734 0.989258C20.6303 0.379475 21.2864 0 22 0L22.1416 0.00488281ZM22 31.542C22.3197 31.542 22.6394 31.6164 22.9307 31.7695L31.7031 36.3828L30.0283 26.6182C29.917 25.9692 30.1329 25.3071 30.6045 24.8477L37.7031 17.9326L27.8906 16.499C27.24 16.4039 26.6778 15.9949 26.3867 15.4053L22 6.5166V31.542Z" fill="#FF8066"/>
</svg>
