<svg width="45" height="45" viewBox="0 0 45 45" fill="none" xmlns="http://www.w3.org/2000/svg">
<path d="M22.5 41.25C32.8553 41.25 41.25 32.8553 41.25 22.5C41.25 12.1447 32.8553 3.75 22.5 3.75C12.1447 3.75 3.75 12.1447 3.75 22.5C3.75 32.8553 12.1447 41.25 22.5 41.25Z" fill="#FFF6E6"/>
<path d="M22.5 15V30M15 22.5H30M41.25 22.5C41.25 32.8553 32.8553 41.25 22.5 41.25C12.1447 41.25 3.75 32.8553 3.75 22.5C3.75 12.1447 12.1447 3.75 22.5 3.75C32.8553 3.75 41.25 12.1447 41.25 22.5Z" stroke="#3F464D" stroke-opacity="0.7" stroke-width="5" stroke-linecap="round" stroke-linejoin="round"/>
</svg>
