<svg width="45" height="45" viewBox="0 0 45 45" fill="none" xmlns="http://www.w3.org/2000/svg">
<path d="M4.5 38.4608C4.5 31.3816 10.4143 25.6429 22.5 25.6429C34.5857 25.6429 40.5 31.3816 40.5 38.4608C40.5 39.587 39.6783 40.5 38.6647 40.5H6.33529C5.32169 40.5 4.5 39.587 4.5 38.4608Z" fill="#FFF6E6"/>
<path d="M29.25 11.25C29.25 14.9779 26.2279 18 22.5 18C18.7721 18 15.75 14.9779 15.75 11.25C15.75 7.52208 18.7721 4.5 22.5 4.5C26.2279 4.5 29.25 7.52208 29.25 11.25Z" fill="#FFF6E6"/>
<path d="M4.5 38.4608C4.5 31.3816 10.4143 25.6429 22.5 25.6429C34.5857 25.6429 40.5 31.3816 40.5 38.4608C40.5 39.587 39.6783 40.5 38.6647 40.5H6.33529C5.32169 40.5 4.5 39.587 4.5 38.4608Z" stroke="#3F464D" stroke-opacity="0.7" stroke-width="4"/>
<path d="M29.25 11.25C29.25 14.9779 26.2279 18 22.5 18C18.7721 18 15.75 14.9779 15.75 11.25C15.75 7.52208 18.7721 4.5 22.5 4.5C26.2279 4.5 29.25 7.52208 29.25 11.25Z" stroke="#3F464D" stroke-opacity="0.7" stroke-width="4"/>
</svg>
